<?xml version="1.0" encoding="UTF-8" standalone="no"?>
<svg
   xmlns:ooo="http://xml.openoffice.org/svg/export"
   xmlns:dc="http://purl.org/dc/elements/1.1/"
   xmlns:cc="http://creativecommons.org/ns#"
   xmlns:rdf="http://www.w3.org/1999/02/22-rdf-syntax-ns#"
   xmlns:svg="http://www.w3.org/2000/svg"
   xmlns="http://www.w3.org/2000/svg"
   xmlns:sodipodi="http://sodipodi.sourceforge.net/DTD/sodipodi-0.dtd"
   xmlns:inkscape="http://www.inkscape.org/namespaces/inkscape"
   version="1.2"
   width="512"
   height="512"
   viewBox="0 0 13546.666 13546.667"
   preserveAspectRatio="xMidYMid"
   fill-rule="evenodd"
   stroke-width="28.222"
   stroke-linejoin="round"
   xml:space="preserve"
   id="svg3354"
   sodipodi:docname="icon.svg"
   inkscape:version="1.0.1 (3bc2e813f5, 2020-09-07)"
   inkscape:export-filename="/home/lslezak/devel/git/lslezak/vscode-rpm-changes/media/icon.png"
   inkscape:export-xdpi="96"
   inkscape:export-ydpi="96"><metadata
   id="metadata3358"><rdf:RDF><cc:Work
       rdf:about=""><dc:format>image/svg+xml</dc:format><dc:type
         rdf:resource="http://purl.org/dc/dcmitype/StillImage" /><dc:title /></cc:Work></rdf:RDF></metadata><sodipodi:namedview
   pagecolor="#ffffff"
   bordercolor="#666666"
   borderopacity="1"
   objecttolerance="10"
   gridtolerance="10"
   guidetolerance="10"
   inkscape:pageopacity="0"
   inkscape:pageshadow="2"
   inkscape:window-width="1688"
   inkscape:window-height="1079"
   id="namedview3356"
   showgrid="false"
   units="px"
   inkscape:zoom="0.55945567"
   inkscape:cx="-3.5387918"
   inkscape:cy="561.25984"
   inkscape:window-x="589"
   inkscape:window-y="179"
   inkscape:window-maximized="0"
   inkscape:current-layer="svg3354"
   inkscape:document-rotation="0" />
 <defs
   class="ClipPathGroup"
   id="defs3235">
  <clipPath
   id="presentation_clip_path"
   clipPathUnits="userSpaceOnUse">
   <rect
   x="0"
   y="0"
   width="21000"
   height="29700"
   id="rect3229" />
  </clipPath>
  <clipPath
   id="presentation_clip_path_shrink"
   clipPathUnits="userSpaceOnUse">
   <rect
   x="21"
   y="29"
   width="20958"
   height="29641"
   id="rect3232" />
  </clipPath>
 </defs>
 <defs
   class="TextShapeIndex"
   id="defs3239">
  <g
   ooo:slide="id1"
   ooo:id-list="id3 id4 id5 id6 id7 id8 id9 id10"
   id="g3237" />
 </defs>
 <defs
   class="EmbeddedBulletChars"
   id="defs3271">
  <g
   id="bullet-char-template-57356"
   transform="matrix(4.8828125e-4,0,0,-4.8828125e-4,0,0)">
   <path
   d="M 580,1141 1163,571 580,0 -4,571 Z"
   id="path3241" />
  </g>
  <g
   id="bullet-char-template-57354"
   transform="matrix(4.8828125e-4,0,0,-4.8828125e-4,0,0)">
   <path
   d="M 8,1128 H 1137 V 0 H 8 Z"
   id="path3244" />
  </g>
  <g
   id="bullet-char-template-10146"
   transform="matrix(4.8828125e-4,0,0,-4.8828125e-4,0,0)">
   <path
   d="M 174,0 602,739 174,1481 1456,739 Z M 1358,739 309,1346 659,739 Z"
   id="path3247" />
  </g>
  <g
   id="bullet-char-template-10132"
   transform="matrix(4.8828125e-4,0,0,-4.8828125e-4,0,0)">
   <path
   d="M 2015,739 1276,0 H 717 l 543,543 H 174 v 393 h 1086 l -543,545 h 557 z"
   id="path3250" />
  </g>
  <g
   id="bullet-char-template-10007"
   transform="matrix(4.8828125e-4,0,0,-4.8828125e-4,0,0)">
   <path
   d="m 0,-2 c -7,16 -16,29 -25,39 l 381,530 c -94,256 -141,385 -141,387 0,25 13,38 40,38 9,0 21,-2 34,-5 21,4 42,12 65,25 l 27,-13 111,-251 280,301 64,-25 24,25 c 21,-10 41,-24 62,-43 C 886,937 835,863 770,784 769,783 710,716 594,584 L 774,223 c 0,-27 -21,-55 -63,-84 l 16,-20 C 717,90 699,76 672,76 641,76 570,178 457,381 L 164,-76 c -22,-34 -53,-51 -92,-51 -42,0 -63,17 -64,51 -7,9 -10,24 -10,44 0,9 1,19 2,30 z"
   id="path3253" />
  </g>
  <g
   id="bullet-char-template-10004"
   transform="matrix(4.8828125e-4,0,0,-4.8828125e-4,0,0)">
   <path
   d="M 285,-33 C 182,-33 111,30 74,156 52,228 41,333 41,471 c 0,78 14,145 41,201 34,71 87,106 158,106 53,0 88,-31 106,-94 l 23,-176 c 8,-64 28,-97 59,-98 l 735,706 c 11,11 33,17 66,17 42,0 63,-15 63,-46 V 965 c 0,-36 -10,-64 -30,-84 L 442,47 C 390,-6 338,-33 285,-33 Z"
   id="path3256" />
  </g>
  <g
   id="bullet-char-template-9679"
   transform="matrix(4.8828125e-4,0,0,-4.8828125e-4,0,0)">
   <path
   d="M 813,0 C 632,0 489,54 383,161 276,268 223,411 223,592 c 0,181 53,324 160,431 106,107 249,161 430,161 179,0 323,-54 432,-161 108,-107 162,-251 162,-431 0,-180 -54,-324 -162,-431 C 1136,54 992,0 813,0 Z"
   id="path3259" />
  </g>
  <g
   id="bullet-char-template-8226"
   transform="matrix(4.8828125e-4,0,0,-4.8828125e-4,0,0)">
   <path
   d="m 346,457 c -73,0 -137,26 -191,78 -54,51 -81,114 -81,188 0,73 27,136 81,188 54,52 118,78 191,78 73,0 134,-26 185,-79 51,-51 77,-114 77,-187 0,-75 -25,-137 -76,-188 -50,-52 -112,-78 -186,-78 z"
   id="path3262" />
  </g>
  <g
   id="bullet-char-template-8211"
   transform="matrix(4.8828125e-4,0,0,-4.8828125e-4,0,0)">
   <path
   d="M -4,459 H 1135 V 606 H -4 Z"
   id="path3265" />
  </g>
  <g
   id="bullet-char-template-61548"
   transform="matrix(4.8828125e-4,0,0,-4.8828125e-4,0,0)">
   <path
   d="m 173,740 c 0,163 58,303 173,419 116,115 255,173 419,173 163,0 302,-58 418,-173 116,-116 174,-256 174,-419 0,-163 -58,-303 -174,-418 C 1067,206 928,148 765,148 601,148 462,206 346,322 231,437 173,577 173,740 Z"
   id="path3268" />
  </g>
 </defs>
 <g
   id="g3276">
  <g
   id="id2"
   class="Master_Slide">
   <g
   id="bg-id2"
   class="Background" />
   <g
   id="bo-id2"
   class="BackgroundObjects" />
  </g>
 </g>
 <g
   class="SlideGroup"
   id="g3352"
   transform="matrix(1.5604565,0,0,1.5604565,-5320.9849,-11757.868)">
  <g
   id="g3350">
   <g
   id="container-id1">
    <g
   id="id1"
   class="Slide"
   clip-path="url(#presentation_clip_path)">
     <g
   class="Page"
   id="g3346">
      <g
   class="com.sun.star.drawing.CustomShape"
   id="g3283">
       <g
   id="id3">
        <rect
   class="BoundingBox"
   stroke="none"
   fill="none"
   x="3749"
   y="7874"
   width="8003"
   height="8003"
   id="rect3278" />
        <path
   fill="#729fcf"
   stroke="none"
   d="m 5083,7875 h 1 c -235,0 -465,62 -667,179 -203,117 -371,285 -488,488 -117,202 -179,432 -179,666 v 5334 0 c 0,235 62,465 179,667 117,203 285,371 488,488 202,117 432,179 667,179 h 5333 1 c 234,0 464,-62 666,-179 203,-117 371,-285 488,-488 117,-202 179,-432 179,-667 v -5334 0 0 c 0,-234 -62,-464 -179,-666 -117,-203 -285,-371 -488,-488 -202,-117 -432,-179 -666,-179 z"
   id="path3280" />
       </g>
      </g>
      <g
   class="Group"
   id="g3315">
       <g
   class="com.sun.star.drawing.CustomShape"
   id="g3292">
        <g
   id="id4">
         <rect
   class="BoundingBox"
   stroke="none"
   fill="none"
   x="5450"
   y="9075"
   width="4601"
   height="5601"
   id="rect3285" />
         <path
   fill="#ffffff"
   stroke="none"
   d="M 7750,14625 H 5500 V 9125 h 4500 v 5500 z"
   id="path3287" />
         <path
   fill="none"
   stroke="#000000"
   stroke-width="100"
   stroke-linejoin="round"
   d="M 7750,14625 H 5500 V 9125 h 4500 v 5500 z"
   id="path3289" />
        </g>
       </g>
       <g
   class="com.sun.star.drawing.CustomShape"
   id="g3299">
        <g
   id="id5">
         <rect
   class="BoundingBox"
   stroke="none"
   fill="none"
   x="6000"
   y="9874"
   width="2980"
   height="241"
   id="rect3294" />
         <path
   fill="#b2b2b2"
   stroke="none"
   d="m 6039,9875 h 1 c -7,0 -14,2 -20,5 -6,4 -11,9 -15,15 -3,6 -5,13 -5,20 v 159 0 c 0,7 2,14 5,20 4,6 9,11 15,15 6,3 13,5 20,5 h 2899 v 0 c 7,0 14,-2 20,-5 6,-4 11,-9 15,-15 3,-6 5,-13 5,-20 v -160 1 0 c 0,-7 -2,-14 -5,-20 -4,-6 -9,-11 -15,-15 -6,-3 -13,-5 -20,-5 z"
   id="path3296" />
        </g>
       </g>
       <g
   class="com.sun.star.drawing.CustomShape"
   id="g3306">
        <g
   id="id6">
         <rect
   class="BoundingBox"
   stroke="none"
   fill="none"
   x="5999"
   y="10637"
   width="2241"
   height="240"
   id="rect3301" />
         <path
   fill="#b2b2b2"
   stroke="none"
   d="m 6038,10637 h 1 c -7,0 -14,2 -20,5 -6,4 -11,9 -15,15 -3,6 -5,13 -5,20 v 159 0 c 0,7 2,14 5,20 4,6 9,11 15,15 6,3 13,5 20,5 h 2160 v 0 c 7,0 14,-2 20,-5 6,-4 11,-9 15,-15 3,-6 5,-13 5,-20 v -160 1 0 c 0,-7 -2,-14 -5,-20 -4,-6 -9,-11 -15,-15 -6,-3 -13,-5 -20,-5 z"
   id="path3303" />
        </g>
       </g>
       <g
   class="com.sun.star.drawing.CustomShape"
   id="g3313">
        <g
   id="id7">
         <rect
   class="BoundingBox"
   stroke="none"
   fill="none"
   x="6000"
   y="11386"
   width="1526"
   height="241"
   id="rect3308" />
         <path
   fill="#b2b2b2"
   stroke="none"
   d="m 6039,11387 h 1 c -7,0 -14,2 -20,5 -6,4 -11,9 -15,15 -3,6 -5,13 -5,20 v 159 0 c 0,7 2,14 5,20 4,6 9,11 15,15 6,3 13,5 20,5 h 1445 v 0 c 7,0 14,-2 20,-5 6,-4 11,-9 15,-15 3,-6 5,-13 5,-20 v -160 1 0 c 0,-7 -2,-14 -5,-20 -4,-6 -9,-11 -15,-15 -6,-3 -13,-5 -20,-5 z"
   id="path3310" />
        </g>
       </g>
      </g>
      <g
   class="Group"
   id="g3344">
       <g
   class="Group"
   id="g3335">
        <g
   class="com.sun.star.drawing.CustomShape"
   id="g3324">
         <g
   id="id8">
          <rect
   class="BoundingBox"
   stroke="none"
   fill="none"
   x="7156"
   y="9057"
   width="4096"
   height="4095"
   id="rect3317" />
          <path
   fill="#e8a202"
   stroke="none"
   d="m 9486,11386 -1765,1764 -564,-564 3528,-3528 565,564 z"
   id="path3319" />
          <path
   fill="none"
   stroke="#e8a202"
   d="m 9486,11386 -1765,1764 -564,-564 3528,-3528 565,564 z"
   id="path3321" />
         </g>
        </g>
        <g
   class="com.sun.star.drawing.CustomShape"
   id="g3333">
         <g
   id="id9">
          <rect
   class="BoundingBox"
   stroke="none"
   fill="none"
   x="6593"
   y="12586"
   width="1130"
   height="1138"
   id="rect3326" />
          <path
   fill="#fff5ce"
   stroke="none"
   d="m 6594,13722 562,-1135 565,565 z"
   id="path3328" />
          <path
   fill="none"
   stroke="#fff5ce"
   d="m 6594,13722 562,-1135 565,565 z"
   id="path3330" />
         </g>
        </g>
       </g>
       <g
   class="com.sun.star.drawing.ClosedBezierShape"
   id="g3342">
        <g
   id="id10">
         <rect
   class="BoundingBox"
   stroke="none"
   fill="none"
   x="6595"
   y="13280"
   width="436"
   height="441"
   id="rect3337" />
         <path
   fill="#000000"
   stroke="none"
   d="m 6947,13362 c 38,38 66,85 82,138 l -433,219 217,-438 c 51,16 97,44 134,81 z"
   id="path3339" />
        </g>
       </g>
      </g>
     </g>
    </g>
   </g>
  </g>
 </g>
</svg>
